<?xml version="1.0" encoding="UTF-8"?>
<svg xmlns="http://www.w3.org/2000/svg" id="Ebene_1" viewBox="0 0 512 512">
  <defs>
    <style>.cls-1{fill:#7189ff;stroke-width:0px;}</style>
  </defs>
  <path class="cls-1" d="m431.43,356.83c-7.63-24.2-19.61-46.27-32.99-67.68-1.05-1.68-1.55-4.24-1.19-6.19,3.28-17.74,3.42-35.47.02-53.17-.6-3.11-.04-5.4,1.6-7.98,10.33-16.21,19.62-32.99,26.82-50.84,7.26-18.04,12.73-36.46,11.55-56.28-1.21-20.38-13.07-35.08-32.67-38.73-7.48-1.39-15.44-1.44-23.05-.68-20.36,2.03-39.06,9.71-57.27,18.59-5.77,2.82-11.4,5.92-17.31,9,2.13,3.75,4,7.05,5.47,9.64,14.34-6.33,27.92-12.86,41.91-18.36,13.87-5.46,28.31-8.8,43.46-7.43,14.77,1.33,24.69,9.65,26.64,24.23,1.04,7.77.79,15.99-.46,23.75-3.32,20.52-11.92,39.23-21.6,57.45-3.07,5.77-6.41,11.4-10,17.76-.78-1.95-1.24-3.05-1.65-4.18-23.97-65.15-92.61-104.08-160.78-91.05-3.13.6-5.41.03-7.97-1.6-16.64-10.58-33.87-20.08-52.24-27.35-17.74-7.02-35.86-12.2-55.26-10.96-18.1,1.16-32.08,11.38-37.18,27.57-3.5,11.1-3.13,22.41-1.18,33.7,4.24,24.54,14.7,46.69,26.65,68.24.21.38.69.62,1.11.98,3.34-1.91,6.56-3.75,9.89-5.65-.84-1.59-1.6-2.88-2.22-4.22-5.79-12.54-12.07-24.88-17.17-37.7-5.51-13.84-8.83-28.3-7.46-43.46,1.33-14.77,9.73-24.23,24.19-26.86,9.36-1.7,18.65-.75,27.84,1.29,22.63,5.04,43.22,14.98,63.19,26.4,2.44,1.39,4.84,2.84,7.28,4.28-61.02,25.59-96.52,70.08-96.48,136.72.05,66.58,35.64,111.02,96.45,136.46-18.5,11.13-37.5,20.91-58.07,27.37-11.61,3.65-23.39,6.01-35.67,5.26-15.93-.97-26.21-9.82-28.36-25.57-.83-6.1-.65-12.5.15-18.62,2.44-18.63,9.58-35.77,17.79-52.49,2.56-5.22,5.36-10.33,8.18-15.74-3.52-2-6.82-3.87-10.98-6.23-6.09,13.4-12.39,26.12-17.72,39.24-6.66,16.39-10.81,33.4-9.76,51.36,1.31,22.45,16.86,38.54,39.22,40.08,14.65,1.01,28.8-1.82,42.64-6.35,23.49-7.7,45.03-19.37,65.91-32.4,1.77-1.11,4.46-1.62,6.52-1.25,16.36,2.96,32.81,3.73,49.13.7,54.47-10.1,92.2-40.85,112.62-92.53.35-.88.74-1.74,1.28-3,.64.82,1.05,1.24,1.34,1.73,9.92,16.62,18.76,33.76,25.03,52.12,4.5,13.17,7.67,26.57,6.68,40.67-1.06,15.16-9.26,25.07-24.2,27.56-6.53,1.09-13.47.98-20.06.17-16.86-2.08-32.53-8.29-47.74-15.59-7.84-3.76-15.49-7.91-23.54-12.04-1.89,3.23-3.75,6.43-6.02,10.33,8.49,4.37,16.55,8.82,24.87,12.72,20.19,9.49,40.94,16.87,63.67,17.39,25.97.6,44.01-16.01,45.11-41.98.56-13.27-1.92-26.05-5.89-38.61Zm-48.07-134.04c.16.57-.33,1.43-.73,2.01-4.83,6.95-9.7,13.88-14.89,21.28-8.17-9.66-15.94-18.84-24.01-28.38,6.43.05,12.46,3.82,18.5.6,5.48-2.93,10.84-6.08,17-9.55,1.46,4.9,2.87,9.45,4.13,14.03Zm-43.47,31.88c0-.75.02-1.5-.01-2.24-.48-10.75-15.79-22.17-25.44-17.96-9.28,4.05-17.65,1.61-26.44-.46-2.42-.57-3.69-1.67-3.93-4.11-.08-.86-.36-1.7-.57-2.55q-3.28-12.99,4.64-23.55c.68-.9,2.15-1.65,3.28-1.69,4.98-.18,9.98-.13,14.96-.04,1.06.02,2.32.28,3.12.9,5.2,4.01,10.91,7.59,15.33,12.35,12.11,13.05,23.67,26.61,35.67,40.22-6.09,7.37-11.56,13.99-17.02,20.61-2.83-2.34-3.88-4.96-3.66-8.39.28-4.35.07-8.73.07-13.09Zm20.09-74.8c.66-.51,1.45-.87,2.74-1.63,3.94,6.5,7.76,12.81,11.73,19.37-5.87,3.37-11.1,6.5-16.48,9.34-1.15.61-2.92.4-4.32.13-7.22-1.37-14.43-2.78-21.59-4.41-1.73-.39-3.58-1.33-4.85-2.55-7.29-6.99-14.42-14.14-21.6-21.24-.24-.23-.34-.6-.52-.95,6.6-1.63,12.85-3.31,19.17-4.64,1.78-.37,3.97-.12,5.64.6,4.67,2.04,9.27,4.29,13.71,6.8,5.72,3.24,11.08,3.25,16.35-.83Zm-34.55-31.98c4.96-.66,8.07,1.21,11.23,3.98,6.16,5.39,12.2,10.9,18.22,16.3-1.99,2.85-3.78,2.97-6.17,1.69-4.93-2.65-10.04-4.95-15-7.56-3.52-1.85-7.08-2.11-10.85-1.14-4.82,1.23-9.7,2.25-14.47,3.66-2.41.71-4.26.42-6.22-1.07-2.46-1.86-5.11-3.48-7.83-5.31,1.95-2.92,3.57-5.73,5.6-8.22.85-1.05,2.52-1.96,3.84-1.99,7.22-.19,14.55.61,21.65-.34Zm-16.39-11.73c-2.35,0-4.71.03-7.06,0-4.74-.07-8.47,1.81-11.05,5.8-3.22,4.99-6.37,10.02-9.64,15.18-2.05-1.7-4.32-3.63-6.65-5.5-2.72-2.18-4.93-4.25-5.46-8.31-.62-4.8-4.49-8.11-9.3-8.45-7.64-.54-13.19-4.59-18.68-9.18,11.84-4.76,49.72.75,67.84,10.47Zm-177.3,76c15.64-41.06,44.16-68.52,85.93-82.26,2.63-.87,4.25-.61,5.25,2.05,2.88,7.68,8.65,11.32,16.63,11.53,6.2.16,10.7,3.44,15.9,8.39-2.46,1.44-4.31,3.02-6.46,3.69-4.74,1.49-9.6,2.66-14.47,3.7-4.15.88-7.23,3.06-9.67,6.46-3.34,4.66-7.03,9.07-10.22,13.83-2.8,4.18-6.6,6.71-10.89,9.21-11.32,6.61-23.65,9.56-36.33,11.75-10.3,1.78-13.16,5.39-13.16,15.95,0,1.99-.01,3.99,0,5.98.04,4.28,1.78,7.71,5.28,10.19,1.62,1.15,3.18,2.53,4.97,3.3,7.05,3.03,9.36,8.23,7.14,15.95-2.19-1.08-4.48-2.45-6.94-3.38-13.22-5-23.46-13.41-31.24-25.3-2.52-3.85-3.39-6.7-1.74-11.06Zm94.85,169.3c-2.28,1.56-4.23,1.95-6.88,1.08-52.87-17.3-84.28-53.26-93.96-108.04-2.25-12.75-1.83-25.59.1-38.37.09-.58.25-1.15.54-2.49,6.59,7.15,10.84,15.7,20.19,19.35,8.63,3.37,16.75,8.04,25.64,12.41,0,5.21-.23,11.32.11,17.4.15,2.61.78,5.77,2.41,7.6,5.27,5.91,10.21,12.42,18.01,15.37,2.8,1.06,3.83,2.71,3.44,5.63-1.97,14.8,3.23,28.22,8.08,41.71.42,1.17.92,2.35,1.12,3.56,1.65,9.98,8.36,14.27,17.57,16.2,7.76,1.63,14.8-3.32,15.09-11.26.18-4.73.21-9.49-.02-14.22-.14-2.85.6-4.52,3.4-5.7,4.47-1.88,8.7-4.31,13.06-6.45,5.12-2.5,7.57-6.52,7.58-12.24.01-8.86.05-8.99,8.6-11.65,5.7-1.77,9.09-5.28,10.21-11.16.65-3.42,1.7-6.76,2.52-10.15,2.27-9.37-3-16.34-12.61-16.05-4.25.13-6.64-1.2-8.91-4.82-8.64-13.79-7.85-13.69-24.55-13.12-6.22.21-11.03-1.12-14.83-6.2-1.85-2.47-4.29-4.52-6.54-6.67-4.59-4.4-9.89-5.06-15.38-1.82-5.33,3.14-10.58,6.4-16.41,9.95,0-3.77.03-6.85,0-9.93-.05-4.28-1.8-7.72-5.33-10.17-2.97-2.06-5.87-4.28-9.04-5.98-2.95-1.58-4.06-3.66-3.62-6.89.23-1.69.04-3.44.04-5.37,5.37-1.09,10.43-2.4,15.58-3.11,7.55-1.03,14.14-4.39,21.04-7.28,10.99-4.61,19.76-11.43,25.6-21.8,4.14-7.36,10.17-11.56,18.58-12.36.74-.07,1.45-.36,2.18-.51,6.09-1.23,12.05-2.66,15.05-9.83,12.04,10.61,23.59,20.78,35.13,30.94-.11.33-.23.66-.34.98-3.04,0-6.07.03-9.11,0-4.75-.05-8.41,1.9-11.03,5.85-2.69,4.05-5.36,8.11-8.12,12.11-2.2,3.2-2.68,6.7-1.84,10.36,1.34,5.82,2.82,11.62,4.31,17.41,1.22,4.76,4.24,7.82,9.02,9.02,6.04,1.52,12.12,2.86,18.14,4.47,5.28,1.42,9.7-1.43,14.49-2.49,2.06-.46,5.13-1.59,6.12-.67,2.99,2.77,7.5,4.75,6.96,10.21-.37,3.71.17,7.5-.12,11.22-.46,5.82,1.08,10.82,5.07,15.1.75.81,1.3,1.81,2.12,2.97-2.26,2.51-4.47,5.01-6.73,7.47-30.65,33.22-64.43,62.83-101.72,88.43Zm23.7-66.94c.98,7.84-2.13,11.95-9.26,14.15-2.7.83-5.15,2.48-7.7,3.77-4.79,2.42-7.24,6.28-7.21,11.69.03,5.48,0,10.95,0,16.43-5.5-.08-7.16-1.23-8.73-5.92-1.07-3.19-1.94-6.45-3.22-9.55-4.82-11.69-7.11-23.73-6.07-36.41.47-5.68-2.14-10.09-7.42-12.22-6.26-2.53-10.69-7.16-15.13-11.86-.75-.8-1.27-2.14-1.3-3.24-.12-5.11-1.65-11.08.46-15.09,2.07-3.92,7.9-5.89,12.14-8.62,3.34-2.14,6.78-4.12,10.33-6.27,4.03,4.03,8.04,7.94,11.92,11.97,3.04,3.15,6.59,4.68,11,4.57,5.36-.13,11.52-1.64,15.85.48,4.09,2.01,6.26,7.94,9.26,12.16,2.5,3.5,5.9,5.25,10.19,5.28,2.09.02,4.18,0,6.66,0-1.06,4.28-1.88,8.17-3.05,11.96-.29.93-1.55,1.8-2.57,2.21-2.53,1.03-5.19,1.72-7.76,2.66-5.56,2.03-9.12,6.09-8.4,11.84Zm-9.15,72.03c36.86-26.84,70.54-57.13,101.09-91.03,2.75,2.27,3.9,4.8,3.72,8.21-.26,4.6.08,9.23-.1,13.84-.18,4.71,1.44,8.49,4.89,11.62,2.94,2.67,5.8,5.43,8.9,8.35-31.43,37-70.62,53.28-118.49,49.03Zm142.09-96.33c-1.56,9-10.7,29.06-17.44,37.93-2.39-2.7-4.78-5.23-6.93-7.95-.68-.86-.93-2.24-.96-3.39-.11-4.36-.29-8.73.02-13.07.39-5.57-1.17-10.29-4.89-14.38-.83-.91-1.46-1.99-2.35-3.23,1.54-1.84,3.05-3.64,4.55-5.44,4.03-4.84,8.06-9.69,12.47-14.99,5.26,7.49,10.27,14.56,15.17,21.71.48.7.52,1.9.36,2.81Zm4.09-19.64c-.32.14-.65.28-.97.41-2.28-3.09-4.55-6.19-6.84-9.27q-4.32-5.82-.02-11.6c2.27-3.06,4.5-6.15,6.75-9.23.36.1.73.21,1.09.31v29.37Z"></path>
</svg>
